# xmcd
#
# Track frame offsets:
#	225
#	15795
#	33352
#	48876
#	66338
#	88012
#	99379
#	116955
#	134808
#	158738
#	179673
#	198097
#	210112
#	227856
#	243083
#	254980
#	272598
#	291625
#
# Disc length: 4164
#
# Revision: 1
# Processed by: cddbd v1.5.1PL0 Copyright (c) Steve Scherf et al.
# Submitted via: dBpowerAMP V4.0
# Normalized: r0:DSETVAR1,TDELIM( - )
#
DISCID=06104112
DTITLE=Various Artist - Valentine Pure Love Songs
DYEAR=1900
DGENRE=Blues
TTITLE0=Lobo - Dream Lover
TTITLE1=Billy Ocean - Suddenly
TTITLE2=Phil Collins - Against All Odds
TTITLE3=Chicago - I Don't Want to Live Without Your Love
TTITLE4=Roberta Flack - Killing Me Softly
TTITLE5=Kylie Minogue - Tears on My Pillow
TTITLE6=Johnny Logan - How About Us
TTITLE7=Shakin Stevens - Tear Drops
TTITLE8=Richard Marx - Angelia
TTITLE9=Tommy Page - I'm Always Dreaming of You
TTITLE10=Bee Gees - How Deep Is Your Love
TTITLE11=The Ronnets - Be My Baby
TTITLE12=Chicago - If you Leave me Now
TTITLE13=Air Supply - Every Woman In The World
TTITLE14=The Platters - Only you
TTITLE15=Natalie Cole - Miss You Like Crazy
TTITLE16=Leo Sayer - When I need you
TTITLE17=Roxette - Spending My Time
EXTD=By Steven\n
EXTT0=
EXTT1=
EXTT2=
EXTT3=
EXTT4=
EXTT5=
EXTT6=
EXTT7=
EXTT8=
EXTT9=
EXTT10=
EXTT11=
EXTT12=
EXTT13=
EXTT14=
EXTT15=
EXTT16=
EXTT17=
PLAYORDER=
